<?xml version="1.0" encoding="utf-8"?>
<!-- Generator: Adobe Illustrator 21.1.0, SVG Export Plug-In . SVG Version: 6.00 Build 0)  -->
<svg version="1.1" id="Layer_1" xmlns="http://www.w3.org/2000/svg" xmlns:xlink="http://www.w3.org/1999/xlink" x="0px" y="0px"
	 viewBox="0 0 840 600" style="enable-background:new 0 0 840 600;" xml:space="preserve">
<style type="text/css">
	.st0{fill:#FFFFFF;}
	.st1{fill:#231F20;}
	.st2{fill:#FF5F00;}
	.st3{fill:#EB001B;}
	.st4{fill:#F79E1B;}
</style>
<g id="Page-1">
	<g id="CC-BG">
		<path id="path-1_1_" class="st0" d="M60,0h720c33.1,0,60,26.9,60,60v480c0,33.1-26.9,60-60,60H60c-33.1,0-60-26.9-60-60V60
			C0,26.9,26.9,0,60,0z"/>
	</g>
</g>
<g id="Layer_1-2">
	<path class="st1" d="M254.7,494.7v-26.8c0.5-8.9-5.8-16.5-14.7-17c-0.9,0-1.4,0-2.3,0c-5.8-0.5-11.6,2.6-15.2,7.5
		c-3.1-4.9-8.4-8-14.3-7.5c-4.4-0.5-8.9,2.3-11.6,6.3v-5.4h-9.4v42.8h9.4V471c-0.9-5.4,3.1-10.7,8.4-11.2c0.5,0,1.4,0,1.8,0
		c6.3,0,9.4,4,9.4,11.2v23.6h9.4V471c-0.9-5.4,3.1-10.7,8.4-11.2c0.5,0,1.4,0,1.8,0c6.3,0,9.4,4,9.4,11.2v23.6h9.5V494.7z
		 M393.4,451.9h-15.2v-12.9h-9.4v12.9h-8.4v8.4h8.4V480c0,9.8,4,15.6,14.7,15.6c4,0,8-1.4,11.6-3.1l-2.6-8c-2.6,1.4-5.4,2.3-8,2.3
		c-4.4,0-6.3-2.6-6.3-7.2V460h15.2v-8.1H393.4z M472.8,451c-4.4,0-8.9,2.3-11.2,6.3v-5.4h-9.4v42.8h9.4v-24.1
		c0-7.2,3.1-11.2,8.9-11.2c1.8,0,4,0.5,5.8,0.9l2.6-8.9C476.8,451.5,474.5,451,472.8,451L472.8,451z M352.8,455.5
		c-5.4-3.1-11.2-4.4-17.3-4.4c-10.7,0-17.8,5.4-17.8,13.8c0,7.2,5.4,11.2,14.7,12.4l4.4,0.5c4.9,0.9,7.5,2.3,7.5,4.4
		c0,3.1-3.5,5.4-9.8,5.4c-4.9,0-10.3-1.4-14.3-4.4l-4.4,7.2c5.4,3.5,12.1,5.8,18.3,5.4c12.4,0,19.6-5.8,19.6-13.8
		s-5.8-11.6-14.7-12.9l-4.4-0.5c-4-0.5-7.2-1.4-7.2-4c0-2.6,3.1-4.9,8-4.9s9.4,1.4,13.3,3.5L352.8,455.5z M601.1,451
		c-4.4,0-8.9,2.3-11.2,6.3v-5.4h-9.4v42.8h9.4v-24.1c0-7.2,3.1-11.2,8.9-11.2c1.8,0,4,0.5,5.8,0.9l2.6-8.9
		C605.7,451.5,603.4,451,601.1,451L601.1,451z M481.7,473.4c-0.5,12.1,8.9,21.9,20.5,22.2c0.9,0,1.4,0,2.3,0
		c5.4,0.5,11.2-1.4,15.2-4.9l-4.4-7.5c-3.1,2.3-7.2,3.5-11.2,4c-7.5-0.5-12.9-7.2-12.4-14.7c0.5-6.7,5.8-12.1,12.4-12.4
		c4,0,8,1.4,11.2,4l4.4-7.5c-4.4-3.5-9.8-5.4-15.2-4.9c-12.1-0.9-21.9,8.4-22.7,20.1C481.7,472,481.7,472.5,481.7,473.4L481.7,473.4
		z M568.6,473.4v-21.4h-9.4v5.4c-3.1-4-8-6.3-13.3-6.3c-12.4,0-22.2,9.8-22.2,22.2s9.8,22.2,22.2,22.2c5.4,0,10.3-2.3,13.3-6.3v5.4
		h9.4V473.4z M534.3,473.4c0.5-7.2,6.7-12.4,13.8-12.1c7.2,0.5,12.4,6.7,12.1,13.8c-0.5,6.7-5.8,12.1-12.9,12.1
		c-7.2,0-12.9-5.4-12.9-12.4C534.3,474.3,534.3,473.8,534.3,473.4z M422.4,451c-12.4,0-22.2,10.3-21.9,22.7
		c0.5,12.4,10.3,22.2,22.7,21.9l0,0c6.3,0.5,12.9-1.8,17.8-5.8l-4.4-6.7c-3.5,2.6-8,4.4-12.4,4.4c-6.3,0.5-12.1-4-12.9-10.3h31.7
		c0-1.4,0-2.3,0-3.5C442.9,460,434.5,451,422.4,451L422.4,451z M422.4,459.6c5.8,0,10.7,4.4,10.7,10.3l0,0h-22.2
		C411.2,464,416.1,459.1,422.4,459.6L422.4,459.6z M654.8,473.4v-38.3h-8.9v22.2c-3.1-4-8-6.3-13.3-6.3c-12.4,0-22.2,9.8-22.2,22.2
		s9.8,22.2,22.2,22.2c5.4,0,10.3-2.3,13.3-6.3v5.4h8.9V473.4z M670.3,488.6c0.5,0,1.4,0,1.8,0.5c0.5,0,0.9,0.5,1.4,0.9
		c0.5,0.5,0.9,0.9,0.9,1.4c0.5,0.9,0.5,2.3,0,3.1c-0.5,0.5-0.5,0.9-0.9,1.4c-0.5,0.5-0.9,0.9-1.4,0.9c-0.5,0.5-0.9,0.5-1.8,0.5
		c-1.8,0-3.1-0.9-4-2.6c-0.5-0.9-0.5-2.3,0-3.1c0.5-0.5,0.5-0.9,0.9-1.4c0.5-0.5,0.9-0.9,1.4-0.9C669,488.6,669.8,488.6,670.3,488.6
		L670.3,488.6z M670.3,496.1c0.5,0,0.9,0,1.4-0.5c0.5,0,0.9-0.5,0.9-0.9c1.4-1.4,1.4-3.1,0-4.4c-0.5-0.5-0.5-0.5-0.9-0.9
		c-0.5,0-0.9-0.5-1.4-0.5s-0.9,0-1.4,0.5c-0.5,0-0.9,0.5-0.9,0.9c-1.4,1.4-1.4,3.1,0,4.4c0.5,0.5,0.9,0.5,0.9,0.9
		C669.4,496.1,669.8,496.1,670.3,496.1L670.3,496.1z M670.3,490.7c0.5,0,0.9,0,1.4,0.5c0.5,0.5,0.5,0.5,0.5,0.9s0,0.5-0.5,0.9
		c-0.5,0.5-0.5,0.5-0.9,0.5l1.4,1.4h-0.9l-1.4-1.4h-0.5v1.4h-0.9v-4L670.3,490.7z M669.4,491.6v0.9h0.9h0.5v-0.5v-0.5h-0.5H669.4z
		 M620.4,473.4c0.5-7.2,6.7-12.4,13.8-12.1c7.2,0.5,12.4,6.7,12.1,13.8c-0.5,6.7-5.8,12.1-12.9,12.1c-7.1,0-12.9-5.4-12.9-12.4
		C620.4,474.3,620.4,473.8,620.4,473.4z M307.4,473.4v-21.4h-9.4v5.4c-3.1-4-8-6.3-13.3-6.3c-12.4,0-22.2,9.8-22.2,22.2
		s9.8,22.2,22.2,22.2c5.4,0,10.3-2.3,13.3-6.3v5.4h9.4V473.4z M272.6,473.4c0.5-7.2,6.7-12.4,13.8-12.1c7.2,0.5,12.4,6.7,12.1,13.8
		c-0.5,6.7-5.8,12.1-12.9,12.1c-7.2,0-12.9-5.4-12.9-12.4C272.6,474.3,272.6,473.8,272.6,473.4L272.6,473.4z"/>
	<g id="_Group_">
		<rect x="349.7" y="127.4" class="st2" width="140.4" height="252.3"/>
		<path id="_Path_" class="st3" d="M358.6,253.6c0-49,22.7-95.8,61.5-126.2c-69.6-54.9-170.8-42.8-225.6,27.1
			s-42.3,170.3,27.1,225.2c58.4,46,140,46,198.4,0C381.3,349.4,358.6,303.1,358.6,253.6z"/>
		<path class="st4" d="M679.6,253.6c0,88.7-71.7,160.5-160.5,160.5c-36.2,0-70.8-12.1-99-34.3c69.6-54.9,81.6-155.6,27.1-225.2
			c-8-10.3-17-19.2-27.1-27.1c69.6-54.9,170.8-42.8,225.2,26.8C667.6,182.6,679.6,217.4,679.6,253.6L679.6,253.6z"/>
		<path class="st4" d="M664.4,352.9v-5.4h2.3v-0.9h-5.4v0.9h2.3v5.4H664.4z M674.7,352.9v-6.3h-1.8l-1.8,4.4l-1.8-4.4h-1.4v6.3h1.4
			v-4.4l1.8,4h1.4l1.8-4v4.9L674.7,352.9z"/>
	</g>
</g>
</svg>
