<?xml version="1.0" encoding="utf-8"?>
<!-- Generator: Adobe Illustrator 21.1.0, SVG Export Plug-In . SVG Version: 6.00 Build 0)  -->
<svg version="1.1" id="Layer_1" xmlns="http://www.w3.org/2000/svg" xmlns:xlink="http://www.w3.org/1999/xlink" x="0px" y="0px"
	 viewBox="0 0 840 600" style="enable-background:new 0 0 840 600;" xml:space="preserve">
<style type="text/css">
	.st0{fill:#FFFFFF;}
	.st1{fill:#0066B2;}
	.st2{fill:#F79510;}
</style>
<g id="Page-1">
	<g id="CC-BG">
		<path id="path-1_1_" class="st0" d="M60,0h720c33.1,0,60,26.9,60,60v480c0,33.1-26.9,60-60,60H60c-33.1,0-60-26.9-60-60V60
			C0,26.9,26.9,0,60,0z"/>
	</g>
	<g id="Visa-Logo" transform="translate(120.000000, 208.000000)">
		<path id="Combined-Shape" class="st1" d="M212.5,181.4L242.4,3.1h47.7l-29.8,178.3H212.5z M433.2,7.5C423.7,3.9,408.9,0,390.4,0
			c-47.1,0-80.3,24.2-80.6,58.8c-0.3,25.6,23.7,39.9,41.8,48.4c18.6,8.7,24.8,14.3,24.7,22.1c-0.1,11.9-14.8,17.4-28.5,17.4
			c-19.1,0-29.2-2.7-44.9-9.3l-6.1-2.8l-6.7,39.9c11.1,5,31.7,9.3,53.1,9.5c50.1,0,82.6-23.9,83-60.9c0.2-20.3-12.5-35.7-40-48.4
			c-16.7-8.3-26.9-13.7-26.8-22.1c0-7.4,8.6-15.3,27.3-15.3c15.6-0.2,26.9,3.2,35.7,6.8l4.3,2L433.2,7.5z M555.5,3.3h-36.8
			c-11.4,0-20,3.2-25,14.8l-70.8,163.4h50.1c0,0,8.2-22,10-26.8c5.5,0,54.1,0.1,61.1,0.1c1.4,6.2,5.8,26.7,5.8,26.7h44.3L555.5,3.3z
			 M496.7,118.2c4-10.2,19-49.8,19-49.8c-0.3,0.5,3.9-10.3,6.3-17l3.2,15.4c0,0,9.1,42.5,11,51.5H496.7z M172.5,3.3l-46.7,121.5
			l-5-24.7c-8.7-28.5-35.8-59.3-66-74.8l42.7,155.9l50.5,0L223.1,3.3H172.5z"/>
		<path id="path30" class="st2" d="M81.8,0H2.9L2.3,3.9c61.4,15.4,102,52.6,118.8,97.3L104,15.7C101,3.9,92.4,0.4,81.8,0"/>
	</g>
</g>
</svg>
